<svg xmlns="http://www.w3.org/2000/svg"
     version="1.1" width="1000" height="1000" viewBox="0 0 1000 1000">
    <rect width="1000" height="1000" fill="#c9efc7"></rect>
    <g transform="matrix(0.7,0,0,0.7,150.0000000000001,106.25)">
        <svg viewBox="0 0 320 360" data-background-color="#c9efc7" preserveAspectRatio="xMidYMid meet"
             height="1125" width="1000" xmlns="http://www.w3.org/2000/svg">
            <g id="tight-bounds" transform="matrix(1,0,0,1,0,0)">
                <svg viewBox="0 0 320 360" height="360" width="320">
                    <g>
                        <svg></svg>
                    </g>
                    <g>
                        <svg viewBox="0 0 320 360" height="360" width="320">
                            <g>
                                <path xmlns="http://www.w3.org/2000/svg"
                                      d="M20.961 227.22l3.726 4.658-1.863-6.056c-0.466-2.795-3.726 0.466-1.863 1.398M25.153 224.425c1.397 2.329 2.795 4.658 2.795 6.987 0 3.261 2.795 4.658 5.123 5.589-3.261-3.726-5.124-13.974-7.918-12.576M204.017 26.929c7.918 0 15.371-0.932 23.756 0.931 20.495 5.124 37.729 15.371 49.374 29.811l32.606 52.169c1.397 13.042 4.192 27.482 3.726 43.319 3.261 0 2.795-4.658 6.521-5.59-3.726 9.316-5.59 20.961-6.521 34.469-2.329-7.453 0-18.632 0.466-24.687-3.261 5.124-5.124 1.397-5.124-0.932 0.466-3.726-1.397-3.261-2.795-4.658-5.124-4.658-8.384-9.782-12.11-17.7 2.329-6.055 2.795-14.905-4.658-19.563-2.329-1.397-5.124-3.726-6.521-7.453-1.863-5.124-5.124-11.179-4.193-19.097 0.466-2.329-6.987 5.124-11.179 1.863-18.166-12.576-36.332-27.016-58.224-39.127-11.645 0-20.029-4.192-24.221-9.316-3.726-4.658-0.932-10.713 4.658-11.179 3.261 0 6.987-0.932 9.782 0.932 0.466-1.863 2.329-4.192 4.657-4.192M157.904 16.215l0.932 0.466c4.658 0.932 6.987 7.453 12.11 5.124 0 3.261 0.466 6.521-0.466 8.85-1.397 3.726-5.59 3.726-8.85 3.726-31.208-1.863-49.374 11.179-68.471 22.358-5.124 3.261-10.713 5.59-14.906 9.782-20.029 18.632-41.921 35.866-47.045 70.335l-4.192 38.195c-0.466 4.192-5.124 8.384-4.192 13.508l3.26 22.824c-3.261-3.261-5.124 0.932-4.192 2.795 0.466 1.397 2.329 6.055 5.124 1.863 3.726 6.987 7.453 20.495 12.576 26.55 15.837 18.632 36.332 35.4 53.101 52.169 4.192-0.932 7.453-0.932 8.384-3.727 1.397 2.795-1.397 5.59-3.726 6.056 7.453 4.658 15.837 8.85 27.016 9.781 14.44 0.932 27.948 3.261 40.524 6.522 6.521-1.863 13.042-2.795 20.029-3.261 2.329 0 3.726-3.726 6.521-4.658l0.466-4.658c2.795 4.192 2.329-1.397 0.466-4.192 3.261 2.795 4.192 5.124 5.589 6.987 0-1.397 3.726-6.521 3.727-0.466l0.931-6.055c1.397-0.932 1.863 5.124 3.261 0.931 1.397-4.192 4.192-0.932 6.987-2.329-0.932 1.863-0.466 5.59 2.794 3.261l3.727-3.261c2.329 5.59 6.055 3.261 7.918 2.329 20.495-13.042 40.99-28.413 60.553-43.784l-0.466 6.055 2.329-7.453c2.329 2.329 4.192 0.466 5.124-0.931 2.795-4.658 6.521-9.316 12.577-13.508-7.453 20.029-16.303 35.866-27.482 48.908l-4.658 5.59c0 3.261-0.932 7.453-4.658 7.918-1.863 0.466-5.59-0.932-8.384 1.863-1.397 1.863 3.261 5.59-0.466 2.795-3.261-2.329-6.521 0-10.248 0.932-2.795 0.932 1.863 3.726 2.795 5.589 0.932 1.863 1.863 3.726 1.398 6.056l-5.124-5.59c-6.055 3.261-9.782 9.316-14.906 13.974-2.329 1.863-1.397 5.124-1.397 7.918-3.261 0-6.987-0.932-8.85 0.932-1.397 1.863-0.932 4.658-0.932 7.453-4.658-0.466-5.124-7.453-9.315-6.056-4.192 0.932-8.85 1.397-12.577 3.727 2.795 5.59-4.658 2.329-3.726 3.26-6.987-4.192-13.042-7.453-20.495-4.658-15.837-5.124-35.4-2.795-49.84-0.931 0-2.329 0.466-4.658-0.466-5.124-0.932 2.329-3.726 1.397-3.26 1.397-8.85-6.055-17.7-9.782-27.016-14.905-8.384 0.932-16.303-3.261-18.632-5.59-6.521-6.055-13.974-2.795-20.029-4.192-13.042-3.261-17.7-16.769-19.098-26.084-0.932-4.658-4.658-6.521-6.055-6.056-6.055-19.563-15.371-37.263-22.824-55.429-1.863-4.658-1.397-9.316-1.397-14.44 2.329 0.932 4.658 0.466 4.192-2.794-2.329-15.371-7.918-27.016-13.974-38.195 3.261-15.837 3.726-34.469 11.179-48.443 6.521-12.576 18.632-19.098 27.016-29.811 2.795-3.726 2.795-8.85 5.59-12.11 9.316-9.316 18.632-19.098 28.879-27.482 4.658-3.726 10.247 0 17.234-1.397 2.329-8.384 11.645-15.837 20.495-13.508 3.726 0.932 11.179-8.85 13.508-9.782 3.726-1.397 1.863 3.726 1.863 6.987 8.85-6.987 20.961-10.713 32.14-14.906"
                                      fill="#528265" fill-rule="nonzero" stroke="none" stroke-width="1"
                                      stroke-linecap="butt" stroke-linejoin="miter" stroke-miterlimit="10"
                                      stroke-dasharray="" stroke-dashoffset="0" font-family="none" font-weight="none"
                                      font-size="none" text-anchor="none" style="mix-blend-mode: normal"
                                      data-fill-palette-color="tertiary"></path>
                            </g>
                            <g transform="matrix(1,0,0,1,64,108.31412864)">
                                <svg viewBox="0 0 192 143.37174272" height="143.37174272" width="192">
                                    <g>
                                        <svg viewBox="0 0 192 143.37174272" height="143.37174272" width="192">
                                            <g>
                                                <svg viewBox="0 0 192 143.37174272" height="143.37174272" width="192">
                                                    <g>
                                                        <svg viewBox="0 0 192 143.37174272" height="143.37174272"
                                                             width="192">
                                                            <g>
                                                                <svg viewBox="0 0 192 143.37174272"
                                                                     height="143.37174272" width="192">
                                                                    <g>
                                                                        <svg viewBox="0 0 192 81.28" height="81.28"
                                                                             width="192">
                                                                            <g transform="matrix(1,0,0,1,0,0)">
                                                                                <svg width="192"
                                                                                     viewBox="0.6500000357627869 -37.45000076293945 89.98999786376953 38.10000228881836"
                                                                                     height="81.28"
                                                                                     data-palette-color="#528265">
                                                                                    <path d="M12.65-33.9Q10.8-33.9 9.93-33 9.05-32.1 9.05-30.2L9.05-30.2 9.05-26.3 14.95-26.3 14.45-22.9 9.05-22.9 9.05 0 4.55 0 4.55-22.9 0.65-22.9 0.65-26.3 4.55-26.3 4.55-30.15Q4.55-33.45 6.58-35.45 8.6-37.45 12.2-37.45L12.2-37.45Q15.2-37.45 18.1-36L18.1-36 16.75-32.9Q14.7-33.9 12.65-33.9L12.65-33.9ZM28.5-26.95Q33.55-26.95 36.35-23.4 39.15-19.85 39.15-13.2L39.15-13.2Q39.15-6.8 36.3-3.08 33.45 0.65 28.45 0.65L28.45 0.65Q23.4 0.65 20.57-3 17.75-6.65 17.75-13.15L17.75-13.15Q17.75-19.7 20.6-23.33 23.45-26.95 28.5-26.95L28.5-26.95ZM28.5-23.35Q25.55-23.35 24-20.88 22.45-18.4 22.45-13.15L22.45-13.15Q22.45-2.9 28.45-2.9L28.45-2.9Q34.45-2.9 34.45-13.2L34.45-13.2Q34.45-18.45 32.95-20.9 31.45-23.35 28.5-23.35L28.5-23.35ZM54.8-26.95Q59.85-26.95 62.65-23.4 65.45-19.85 65.45-13.2L65.45-13.2Q65.45-6.8 62.6-3.08 59.75 0.65 54.75 0.65L54.75 0.65Q49.7 0.65 46.87-3 44.05-6.65 44.05-13.15L44.05-13.15Q44.05-19.7 46.9-23.33 49.75-26.95 54.8-26.95L54.8-26.95ZM54.8-23.35Q51.85-23.35 50.3-20.88 48.75-18.4 48.75-13.15L48.75-13.15Q48.75-2.9 54.75-2.9L54.75-2.9Q60.75-2.9 60.75-13.2L60.75-13.2Q60.75-18.45 59.25-20.9 57.75-23.35 54.8-23.35L54.8-23.35ZM86.14-37.45L90.64-36.95 90.64 0 86.64 0 86.34-3.45Q83.79 0.65 79.49 0.65L79.49 0.65Q75.19 0.65 72.82-3 70.44-6.65 70.44-13.05L70.44-13.05Q70.44-17.2 71.62-20.35 72.79-23.5 74.94-25.23 77.09-26.95 79.89-26.95L79.89-26.95Q83.64-26.95 86.14-23.8L86.14-23.8 86.14-37.45ZM80.54-2.9Q82.34-2.9 83.67-3.9 84.99-4.9 86.14-6.85L86.14-6.85 86.14-20.05Q83.89-23.4 80.89-23.4L80.89-23.4Q78.24-23.4 76.69-20.85 75.14-18.3 75.19-13.15L75.19-13.15Q75.19-7.9 76.59-5.4 77.99-2.9 80.54-2.9L80.54-2.9Z"
                                                                                          opacity="1"
                                                                                          transform="matrix(1,0,0,1,0,0)"
                                                                                          fill="#528265"
                                                                                          class="undefined-text-0"
                                                                                          data-fill-palette-color="primary"
                                                                                          id="text-0"></path>
                                                                                </svg>
                                                                            </g>
                                                                        </svg>
                                                                    </g>
                                                                    <g transform="matrix(1,0,0,1,0,93.14070272000001)">
                                                                        <svg viewBox="0 0 192 50.23104"
                                                                             height="50.23104" width="192">
                                                                            <g transform="matrix(1,0,0,1,0,0)">
                                                                                <svg width="192"
                                                                                     viewBox="1.0499999523162842 -33.08000183105469 127.00999450683594 33.230003356933594"
                                                                                     height="50.23104"
                                                                                     data-palette-color="#3c3c3c">
                                                                                    <path d="M15.92-27L15.92 0.15Q14.75 0 9.89 0L9.89 0 9.11 0 9.11-27 4.27-27Q2.12-27 1.73-26.78 1.34-26.56 1.12-26.39L1.12-26.39 1.05-26.42 1.05-32.67 1.12-32.74Q1.93-32.47 5.47-32.47L5.47-32.47 20.78-32.47Q22.92-32.47 23.32-32.69 23.71-32.91 23.93-33.08L23.93-33.08 24-33.06 24-26.81 23.93-26.73Q23.12-27 19.58-27L19.58-27 15.92-27ZM126.45-20.07L126.52-14.04Q125.35-14.16 123.49-14.16L123.49-14.16 116.09-14.16 116.09 0 109.4 0 109.4-32.64Q110.06-32.59 110.92-32.57L110.92-32.57 112.72-32.52Q114.58-32.47 116.58-32.47L116.58-32.47Q122.59-32.47 128.06-32.67L128.06-32.67Q127.79-30.52 127.79-26.93L127.79-26.93Q127.79-26.54 127.84-26.34L127.84-26.34 127.79-26.27Q126.49-26.64 124.17-26.64L124.17-26.64 116.09-26.64 116.09-19.92 123.22-19.92Q125.91-19.92 126.45-20.07L126.45-20.07Z"
                                                                                          opacity="1"
                                                                                          transform="matrix(1,0,0,1,0,0)"
                                                                                          fill="#3c3c3c"
                                                                                          class="undefined-text-1"
                                                                                          data-fill-palette-color="secondary"
                                                                                          id="text-1"></path>
                                                                                </svg>
                                                                            </g>
                                                                        </svg>
                                                                    </g>
                                                                </svg>
                                                            </g>
                                                        </svg>
                                                    </g>
                                                    <g></g>
                                                </svg>
                                            </g>
                                        </svg>
                                    </g>
                                </svg>
                            </g>
                        </svg>
                    </g>
                    <defs></defs>
                </svg>
                <rect width="320" height="360" fill="none" stroke="none" visibility="hidden"></rect>
            </g>
        </svg>
    </g>
</svg>
